<svg
  xmlns="http://www.w3.org/2000/svg"
  viewBox="0 0 1200 900"
  fill="none"
  stroke="currentColor"
  stroke-width="1.1"
  stroke-linecap="round"
  stroke-linejoin="round"
  aria-hidden="true"
>
  <g opacity="0.95">
    <path d="M620 240 C 700 220 820 230 900 270 C 980 310 1010 380 980 450 C 950 520 870 560 760 555 C 650 550 560 510 530 440 C 500 370 540 270 620 240 Z" />
    <path d="M580 200 C 700 170 870 175 970 230 C 1070 290 1110 390 1060 480 C 1010 570 880 620 730 615 C 580 610 460 560 430 460 C 410 380 470 240 580 200 Z" />
    <path d="M540 160 C 700 120 920 130 1050 200 C 1180 270 1230 400 1160 510 C 1090 620 920 690 730 685 C 540 680 360 600 340 470 C 330 360 410 200 540 160 Z" />
    <path d="M500 120 C 700 75 970 90 1130 175 C 1290 260 1350 415 1255 555 C 1160 695 950 770 720 765 C 490 760 270 660 250 490 C 240 350 340 165 500 120 Z" />
    <path d="M460 80 C 700 30 1020 50 1210 150 C 1400 250 1470 430 1350 600 C 1230 770 980 845 710 840 C 440 835 180 715 165 510 C 160 340 280 105 460 80 Z" />
    <path d="M420 45 C 700 -10 1075 15 1295 130 C 1515 245 1590 445 1450 645 C 1310 845 1015 920 700 915 C 385 910 95 770 80 530 C 80 330 220 65 420 45 Z" />
  </g>

  <g opacity="0.7" transform="translate(-180 0)">
    <path d="M340 590 C 410 575 510 580 575 615 C 640 650 665 705 640 760 C 615 815 540 845 445 840 C 350 835 280 805 255 750 C 235 700 270 605 340 590 Z" />
    <path d="M300 555 C 410 525 555 535 645 580 C 735 625 770 705 720 775 C 670 845 545 890 410 885 C 275 880 175 835 155 760 C 145 700 200 590 300 555 Z" />
    <path d="M255 510 C 410 470 615 480 730 540 C 845 600 890 700 815 790 C 740 880 555 935 365 930 C 175 925 60 855 50 745 C 50 670 130 545 255 510 Z" />
  </g>

  <g opacity="0.55" transform="translate(380 -120)">
    <path d="M620 240 C 700 220 820 230 900 270 C 980 310 1010 380 980 450 C 950 520 870 560 760 555 C 650 550 560 510 530 440 C 500 370 540 270 620 240 Z" />
    <path d="M580 200 C 700 170 870 175 970 230 C 1070 290 1110 390 1060 480 C 1010 570 880 620 730 615 C 580 610 460 560 430 460 C 410 380 470 240 580 200 Z" />
  </g>
</svg>
